<?xml version="1.0" standalone="no"?>
<!DOCTYPE svg PUBLIC "-//W3C//DTD SVG 20010904//EN"
 "http://www.w3.org/TR/2001/REC-SVG-20010904/DTD/svg10.dtd">
<svg version="1.0" xmlns="http://www.w3.org/2000/svg"
 width="1100.000000pt" height="1100.000000pt" viewBox="0 0 1100.000000 1100.000000"
 preserveAspectRatio="xMidYMid meet">
<metadata>
Created by potrace 1.14, written by Peter Selinger 2001-2017
</metadata>
<g transform="translate(0.000000,1100.000000) scale(0.100000,-0.100000)"
fill="#000000" stroke="none">
<path d="M5410 8844 c-47 -63 -92 -123 -101 -134 -8 -10 -24 -31 -35 -45 -62
-85 -184 -249 -199 -268 -6 -6 -48 -64 -95 -127 -47 -63 -91 -122 -97 -130
-16 -19 -359 -477 -381 -509 -9 -13 -26 -34 -37 -46 -11 -13 -27 -33 -35 -45
-15 -23 -296 -396 -328 -437 -9 -12 -24 -31 -32 -43 -17 -25 -63 -85 -85 -113
-9 -9 -32 -41 -52 -70 -20 -28 -39 -54 -43 -57 -3 -3 -17 -21 -30 -40 -13 -19
-27 -37 -30 -40 -3 -3 -18 -23 -35 -45 -16 -22 -33 -44 -37 -50 -5 -5 -39 -50
-75 -100 -37 -49 -71 -91 -75 -93 -4 -2 -8 -10 -8 -18 0 -8 -4 -14 -8 -14 -5
0 -23 -21 -40 -47 -17 -27 -39 -57 -49 -68 -10 -11 -30 -36 -43 -55 -14 -19
-30 -42 -37 -50 -11 -14 -97 -129 -141 -189 -9 -13 -22 -29 -27 -35 -6 -6 -35
-45 -65 -86 -30 -41 -57 -77 -60 -80 -3 -3 -22 -27 -41 -55 -18 -27 -38 -55
-44 -61 -5 -6 -20 -24 -32 -40 -12 -16 -117 -157 -234 -314 -117 -157 -217
-289 -221 -295 -5 -5 -62 -82 -128 -170 -65 -88 -123 -164 -127 -170 -5 -5
-89 -118 -188 -250 -99 -132 -183 -241 -187 -243 -5 -2 -8 -8 -8 -13 0 -5 -7
-17 -16 -26 -9 -10 -117 -153 -240 -318 -123 -165 -229 -306 -235 -314 -7 -7
-47 -61 -90 -120 -43 -58 -82 -110 -86 -116 -4 -5 -19 -24 -33 -41 -14 -17
-33 -42 -42 -55 -27 -38 -337 -453 -347 -465 -6 -7 -105 -140 -222 -295 -117
-156 -216 -285 -221 -287 -4 -2 -8 -10 -8 -17 0 -7 -3 -15 -7 -17 -16 -6 -65
-80 -58 -86 3 -4 2341 -7 5195 -7 l5188 0 -16 27 c-9 16 -20 28 -25 28 -4 0
-5 5 -2 10 3 6 2 10 -2 10 -5 0 -51 57 -103 128 -52 70 -97 129 -100 132 -3 3
-20 25 -38 50 -18 25 -88 118 -155 207 -67 89 -131 174 -142 189 -11 15 -51
68 -88 118 -38 50 -78 104 -90 120 -28 37 -74 98 -85 111 -4 6 -19 26 -32 45
-14 19 -31 41 -38 48 -6 7 -26 35 -44 60 -18 26 -42 58 -55 72 -13 14 -23 28
-23 32 0 3 -6 13 -13 20 -6 7 -118 155 -247 328 -129 173 -240 321 -247 330
-7 8 -44 58 -83 110 -39 52 -83 110 -98 129 -15 18 -31 41 -36 50 -5 9 -12 18
-15 21 -3 3 -48 61 -99 130 -52 69 -104 139 -117 155 -13 17 -109 145 -214
285 -104 140 -194 260 -199 265 -4 6 -48 64 -97 130 -50 66 -95 127 -102 135
-6 8 -44 58 -83 110 -39 52 -76 102 -83 110 -7 8 -23 31 -37 50 -13 19 -27 37
-30 40 -3 3 -17 21 -30 40 -13 19 -27 37 -30 40 -3 3 -32 41 -64 85 -33 44
-62 82 -65 85 -4 3 -15 18 -25 35 -11 16 -23 34 -28 40 -5 5 -33 44 -64 85
-30 41 -64 86 -74 100 -10 14 -58 77 -105 140 -48 63 -92 122 -99 131 -7 8
-32 42 -56 75 -24 32 -48 64 -52 69 -5 6 -22 28 -39 50 -16 22 -35 47 -42 55
-24 30 -102 135 -117 156 -19 28 -223 297 -230 304 -13 13 -60 79 -60 86 0 4
-6 12 -14 18 -7 6 -114 146 -237 311 -123 165 -226 302 -229 305 -3 3 -23 30
-45 60 -22 30 -43 60 -48 65 -5 6 -89 118 -188 250 -99 132 -185 247 -192 255
-7 8 -59 79 -117 157 -58 78 -107 142 -110 142 -3 0 -43 -52 -90 -115z m122
-256 c32 -46 34 -49 68 -89 16 -20 30 -41 30 -47 0 -6 4 -12 8 -14 4 -1 82
-102 172 -223 91 -121 167 -222 170 -225 3 -3 30 -39 60 -80 29 -41 59 -80 64
-86 20 -21 231 -306 241 -325 5 -10 13 -19 17 -19 5 0 8 -4 8 -9 0 -7 -150
-214 -192 -266 -9 -11 -388 -516 -416 -553 -45 -61 -149 -200 -182 -242 -8
-11 -28 -37 -44 -60 -17 -22 -33 -40 -37 -40 -3 0 -30 33 -60 73 -29 39 -57
74 -61 75 -4 2 -8 10 -8 17 0 7 -3 15 -7 17 -5 2 -68 84 -142 183 -74 99 -141
185 -148 191 -7 6 -13 15 -13 21 0 5 -8 18 -18 29 -10 10 -31 37 -47 59 -17
22 -33 44 -38 50 -4 5 -27 37 -52 70 -24 33 -51 67 -60 76 -8 9 -15 19 -15 23
0 4 -5 12 -10 19 -6 7 -24 28 -40 47 -16 19 -30 38 -30 41 0 3 -13 21 -30 39
-16 18 -30 37 -30 42 0 4 -8 17 -17 27 -30 32 -43 50 -43 56 0 5 115 162 141
194 7 7 46 59 87 115 42 55 80 103 84 104 4 2 8 7 8 12 0 10 190 264 201 268
5 2 9 10 9 17 0 7 3 15 8 17 4 2 61 75 127 163 65 88 123 162 127 163 4 2 8 8
8 13 0 13 61 89 71 89 4 0 18 -15 31 -32z m-989 -1345 c19 -27 66 -89 105
-139 39 -51 68 -95 65 -98 -4 -3 -2 -6 4 -6 5 0 50 -54 99 -121 49 -66 94
-126 99 -132 6 -7 22 -28 35 -47 14 -19 30 -42 37 -50 12 -15 138 -182 178
-236 25 -35 102 -136 113 -149 4 -5 19 -26 32 -45 14 -19 33 -43 43 -54 9 -11
17 -24 17 -29 0 -7 -253 -351 -270 -367 -3 -3 -16 -21 -30 -40 -13 -19 -28
-39 -33 -45 -4 -5 -114 -152 -243 -325 -129 -173 -240 -322 -247 -330 -7 -8
-20 -25 -29 -38 l-16 -23 -66 86 c-36 47 -66 89 -66 94 0 5 -3 11 -8 13 -11 5
-112 137 -112 147 0 5 -4 11 -8 13 -5 2 -35 39 -68 83 -32 44 -61 82 -64 85
-3 3 -32 41 -64 85 -33 44 -63 82 -68 83 -4 2 -8 10 -8 17 0 7 -3 15 -7 17
-10 4 -333 435 -333 443 0 5 25 42 63 90 4 5 55 73 113 150 57 77 110 147 117
155 7 9 66 87 132 175 66 88 123 165 128 170 4 6 48 64 98 130 49 66 95 127
102 135 7 8 34 45 61 83 28 37 53 67 57 67 4 0 23 -21 42 -47z m1991 10 c27
-41 356 -478 379 -503 7 -8 24 -31 37 -50 13 -19 27 -37 30 -40 3 -3 54 -70
113 -150 59 -80 113 -152 120 -160 7 -8 45 -59 86 -113 l74 -99 -18 -31 c-10
-18 -21 -34 -25 -37 -3 -3 -67 -86 -141 -185 -138 -185 -147 -197 -164 -218
-6 -7 -118 -156 -250 -332 -132 -176 -249 -330 -259 -342 l-19 -22 -39 52
c-21 29 -47 63 -56 75 -9 13 -50 67 -90 120 -40 54 -81 108 -92 122 -10 14
-55 75 -100 135 -45 61 -86 112 -91 113 -5 2 -9 8 -9 13 0 6 -225 312 -282
384 -33 41 -108 145 -108 150 0 5 810 1090 850 1137 20 25 26 23 54 -19z
m-2968 -1374 c32 -44 64 -86 69 -92 57 -64 735 -982 732 -991 -4 -10 -177
-245 -199 -271 -5 -5 -54 -71 -109 -145 -56 -74 -112 -148 -126 -165 -13 -16
-32 -42 -41 -57 -9 -16 -20 -28 -24 -28 -4 0 -8 -6 -8 -14 0 -8 -4 -16 -8 -18
-5 -1 -31 -34 -60 -73 -29 -38 -61 -81 -72 -95 -11 -14 -64 -84 -117 -157 -54
-73 -100 -132 -103 -132 -3 0 -43 52 -90 116 -47 63 -90 121 -95 127 -6 6 -48
63 -95 126 -86 116 -97 131 -115 153 -6 7 -69 91 -140 187 -71 96 -132 177
-135 180 -3 3 -50 65 -104 138 l-98 132 26 39 c15 21 34 47 44 57 9 11 22 27
27 36 6 8 30 42 54 74 25 33 157 210 295 394 138 184 254 340 258 345 5 6 38
51 75 100 77 104 86 114 94 115 3 0 33 -36 65 -81z m1976 34 c17 -26 38 -54
45 -63 12 -14 258 -342 300 -399 10 -14 35 -46 56 -73 20 -26 37 -50 37 -53 0
-3 9 -16 21 -28 11 -12 44 -56 74 -97 30 -41 58 -79 63 -85 4 -5 24 -32 45
-60 20 -27 40 -54 45 -60 4 -5 31 -41 60 -80 28 -38 59 -78 68 -87 15 -16 16
-21 4 -43 -7 -14 -17 -25 -22 -25 -4 0 -8 -6 -8 -12 0 -7 -13 -27 -28 -44 -15
-17 -36 -43 -47 -58 -32 -45 -148 -200 -157 -211 -5 -5 -86 -113 -180 -240
-94 -126 -175 -231 -180 -233 -4 -2 -8 -8 -8 -12 0 -5 -32 -51 -71 -102 -39
-51 -80 -106 -92 -122 -12 -16 -30 -37 -39 -48 -9 -11 -19 -25 -21 -31 -2 -7
-6 -10 -9 -7 -24 26 -168 223 -168 230 0 4 -4 10 -8 12 -8 3 -207 264 -227
296 -5 10 -13 19 -16 22 -3 3 -61 79 -128 170 -68 91 -127 167 -132 168 -5 2
-9 8 -9 13 0 7 -68 101 -123 169 -40 50 -57 81 -51 92 10 16 177 241 184 248
3 3 37 48 75 100 38 52 72 97 75 100 3 3 43 57 90 120 47 63 89 120 95 127 5
6 84 111 175 232 90 122 168 221 172 221 4 0 22 -21 40 -47z m1998 -1 c19 -25
40 -53 47 -62 6 -8 47 -62 90 -120 43 -58 81 -106 86 -108 4 -2 7 -8 7 -13 0
-6 9 -19 20 -31 11 -12 32 -40 47 -62 16 -23 33 -45 39 -51 6 -5 22 -26 35
-45 13 -19 29 -42 36 -50 6 -8 30 -40 52 -70 22 -30 44 -59 48 -65 16 -19 309
-410 317 -423 5 -8 -27 -59 -91 -145 -54 -73 -100 -134 -103 -137 -3 -3 -17
-21 -30 -40 -13 -19 -27 -37 -30 -40 -3 -3 -22 -27 -41 -55 -18 -27 -39 -54
-45 -60 -6 -5 -35 -44 -65 -85 -30 -41 -60 -82 -66 -90 -19 -23 -146 -195
-163 -220 -8 -13 -22 -30 -30 -39 -9 -9 -54 -68 -100 -131 -47 -63 -89 -118
-94 -121 -5 -4 -36 30 -70 75 -33 44 -63 83 -66 86 -3 3 -17 21 -30 40 -13 19
-27 37 -30 40 -3 3 -17 21 -30 40 -13 19 -27 37 -30 40 -3 3 -21 27 -40 53
-42 57 -86 117 -103 137 -7 8 -34 44 -60 80 -27 36 -60 80 -75 99 -15 18 -31
41 -36 50 -5 9 -12 18 -15 21 -3 3 -26 32 -51 65 -24 33 -50 66 -56 75 -48 58
-184 245 -184 251 0 7 90 132 132 184 5 6 42 55 83 110 42 55 81 107 88 115 6
8 30 40 52 70 22 30 44 60 50 67 15 18 21 26 135 178 58 77 109 145 115 152 5
7 55 73 110 147 55 75 102 135 105 135 3 0 21 -21 40 -47z m-5020 -1303 c20
-28 424 -568 447 -597 10 -13 25 -31 33 -42 8 -10 51 -67 95 -127 44 -59 85
-115 92 -123 6 -8 36 -49 67 -90 30 -41 59 -79 63 -85 5 -5 19 -24 32 -42 l24
-31 -24 -34 c-58 -82 -234 -313 -241 -316 -4 -2 -8 -8 -8 -13 0 -5 -7 -17 -15
-26 -8 -10 -93 -124 -189 -253 -97 -129 -181 -242 -188 -250 -8 -8 -56 -72
-108 -142 -52 -70 -97 -128 -100 -128 -3 0 -33 37 -65 82 -33 45 -65 86 -71
92 -6 6 -13 16 -15 22 -2 6 -17 26 -32 45 -16 19 -102 133 -193 254 -90 121
-174 231 -185 245 -11 14 -28 37 -37 53 -9 15 -20 27 -24 27 -4 0 -8 6 -8 14
0 8 -4 16 -8 18 -4 2 -55 66 -112 143 -58 77 -109 143 -114 146 -5 4 -7 13 -4
21 5 11 143 200 170 232 5 6 74 99 154 206 80 107 156 207 167 222 12 16 101
133 197 263 96 129 177 234 180 235 3 0 12 -9 20 -21z m2020 -26 c19 -27 39
-53 45 -59 5 -6 16 -20 23 -30 7 -11 181 -244 387 -518 206 -275 375 -503 375
-507 0 -4 -7 -14 -15 -23 -8 -8 -15 -19 -15 -24 0 -6 -3 -12 -7 -14 -5 -1 -87
-109 -183 -238 -96 -129 -177 -237 -180 -240 -3 -3 -17 -21 -30 -40 -13 -19
-27 -37 -30 -40 -3 -3 -23 -30 -45 -60 -22 -30 -44 -60 -50 -66 -5 -7 -77
-102 -159 -213 -82 -110 -152 -201 -155 -201 -3 0 -53 64 -111 141 -57 77
-110 148 -117 157 -7 9 -54 71 -104 137 -49 66 -98 131 -109 145 -212 281
-370 494 -370 501 0 5 -3 9 -7 9 -16 0 -55 69 -47 82 8 13 360 483 376 503 15
18 283 374 326 433 9 13 25 33 35 44 9 12 17 24 17 27 0 3 13 20 28 38 16 18
40 48 53 67 13 20 27 36 30 36 3 0 21 -21 39 -47z m1970 39 c0 -5 8 -17 18
-28 10 -10 28 -35 42 -54 13 -19 27 -37 30 -40 3 -3 17 -21 30 -40 13 -19 27
-37 30 -40 3 -3 32 -40 64 -84 32 -43 64 -86 72 -95 41 -50 566 -756 570 -766
4 -10 -95 -150 -179 -255 -7 -8 -30 -40 -52 -70 -22 -30 -44 -60 -50 -66 -5
-6 -19 -23 -30 -38 -11 -16 -25 -33 -31 -40 -6 -6 -13 -16 -15 -21 -4 -11
-146 -202 -164 -221 -5 -6 -19 -23 -30 -38 -46 -63 -256 -343 -277 -370 -13
-16 -24 -33 -26 -37 -8 -20 -23 -4 -98 99 -43 59 -83 112 -89 118 -5 7 -19 24
-30 39 -25 34 -239 321 -265 355 -219 287 -400 537 -396 546 4 11 263 361 276
374 3 3 43 57 90 120 47 63 87 117 90 120 3 3 66 86 139 185 74 99 140 185
145 192 6 6 36 46 65 87 50 70 71 89 71 68z m2035 -48 c22 -30 45 -61 50 -67
6 -7 23 -30 40 -52 16 -22 35 -46 42 -53 7 -7 13 -17 13 -20 0 -4 16 -25 35
-47 19 -22 35 -43 35 -46 0 -4 13 -22 30 -40 16 -19 30 -37 30 -41 0 -4 6 -13
13 -20 7 -7 63 -80 125 -163 61 -82 120 -161 131 -175 10 -14 64 -86 120 -160
55 -74 104 -139 108 -145 36 -45 53 -69 53 -75 0 -8 -44 -67 -309 -418 -56
-74 -101 -137 -101 -142 0 -5 -4 -10 -9 -12 -4 -1 -77 -95 -162 -208 -84 -113
-157 -206 -161 -208 -4 -2 -8 -10 -8 -17 0 -7 -3 -15 -8 -17 -4 -1 -30 -33
-57 -70 -27 -38 -51 -68 -54 -68 -6 0 -307 396 -326 428 -5 9 -13 19 -16 22
-3 3 -32 41 -65 85 -32 44 -61 82 -64 85 -3 3 -23 30 -45 60 -22 30 -42 57
-45 60 -3 3 -30 39 -60 80 -30 41 -59 80 -63 85 -29 35 -187 251 -187 255 0 3
7 15 15 25 8 11 45 61 82 110 37 50 70 92 75 93 4 2 8 10 8 17 0 8 6 18 13 22
6 4 23 24 37 43 13 19 28 40 32 45 5 6 32 42 60 80 29 39 56 75 60 80 5 6 22
28 38 50 17 22 39 51 49 65 10 14 37 50 60 80 22 30 44 60 49 65 4 6 33 44 62
85 30 41 59 80 65 86 5 6 43 56 84 112 41 56 77 102 80 102 3 -1 24 -26 46
-56z m-7031 -1287 c7 -7 15 -17 17 -22 7 -18 342 -460 351 -463 4 -2 8 -8 8
-13 0 -10 101 -142 112 -147 5 -2 8 -8 8 -13 0 -7 54 -81 123 -169 7 -9 32
-42 56 -75 25 -33 48 -61 53 -63 4 -2 8 -9 8 -17 0 -7 7 -18 16 -25 8 -8 19
-20 24 -29 7 -15 -65 -16 -786 -15 -436 0 -796 2 -799 5 -2 3 8 19 23 36 15
17 36 43 47 58 11 16 65 88 120 161 55 73 109 145 120 160 51 70 397 531 408
544 7 8 26 34 42 57 34 48 32 47 49 30z m2301 -404 c171 -228 315 -420 320
-427 6 -6 30 -38 54 -71 25 -33 48 -61 53 -63 4 -2 8 -9 8 -17 0 -7 7 -18 16
-25 8 -8 19 -20 24 -29 7 -15 -65 -16 -786 -16 -437 0 -794 4 -794 9 0 4 10
21 23 36 25 32 49 63 106 140 22 30 48 64 57 75 9 11 28 38 42 60 15 22 34 47
42 56 8 9 24 28 34 43 11 15 28 37 38 48 10 12 18 24 18 27 0 3 10 18 23 33
12 14 31 39 42 54 11 15 71 95 133 177 61 82 112 153 112 158 0 5 3 9 8 9 4 0
22 23 41 50 19 28 38 50 42 50 4 0 11 9 14 20 3 11 9 20 13 20 4 -1 147 -188
317 -417z m1745 339 c27 -37 53 -71 58 -77 4 -5 28 -37 52 -70 25 -33 49 -64
53 -70 10 -12 415 -553 442 -591 31 -43 103 -138 116 -153 8 -9 8 -15 1 -20
-13 -8 -1560 -7 -1568 2 -5 5 62 101 114 163 5 6 37 48 71 95 34 46 73 98 86
114 13 17 75 100 139 185 63 85 122 164 131 175 9 11 24 31 33 43 9 13 28 39
42 57 14 18 34 45 44 60 11 14 27 35 35 45 9 11 32 42 51 69 19 27 38 47 43
44 4 -2 30 -34 57 -71z m2120 -160 c93 -125 173 -231 178 -237 4 -5 69 -91
143 -190 73 -99 139 -186 146 -195 81 -102 143 -194 135 -199 -13 -8 -1560 -7
-1568 2 -6 6 163 238 179 245 4 2 7 10 7 18 0 8 4 14 9 14 5 0 20 17 32 38 13
20 26 39 29 42 4 3 53 68 111 145 57 77 106 142 109 145 3 3 43 57 90 120 47
63 89 120 95 126 5 6 35 45 65 87 30 41 59 73 63 70 5 -3 84 -107 177 -231z
m1840 221 c0 -5 34 -53 75 -108 41 -55 82 -111 92 -124 21 -29 100 -132 111
-146 4 -5 18 -26 32 -45 13 -19 27 -37 30 -40 3 -3 67 -86 140 -185 74 -99
137 -182 140 -185 15 -15 150 -201 150 -207 0 -5 -355 -8 -790 -8 -811 0 -813
0 -777 37 7 7 60 76 118 153 57 77 106 142 109 145 3 3 32 41 64 85 33 44 63
82 68 83 4 2 8 9 8 14 0 6 7 18 15 27 9 9 52 66 97 126 45 61 86 115 90 120 5
6 22 28 38 50 16 22 33 45 38 50 4 6 34 45 66 88 50 66 86 95 86 70z"/>
</g>
</svg>
